<svg width="384" height="512" viewBox="0 0 384 512" fill="none" xmlns="http://www.w3.org/2000/svg">
<path d="M384 192C384 279.4 267 435 215.7 499.2C203.4 514.5 180.6 514.5 168.3 499.2C117 435 0 279.4 0 192C0 86 86 0 192 0C298 0 384 86 384 192Z" fill="#1BBA6E"/>
<g clip-path="url(#clip0_922_5)">
<rect x="67" y="59" width="250" height="250" rx="120" fill="white"/>
<path d="M287.873 213.239C287.512 217.683 284.812 222.081 279.631 226.231C274.45 230.382 266.999 234.1 257.707 237.126C239.14 243.173 213.746 246.289 185.962 244.937C158.179 243.585 133.491 238.031 116.051 230.233C107.323 226.33 100.534 221.919 96.0663 217.298C91.5997 212.678 89.6346 208.053 89.9963 203.61C90.3581 199.166 93.0577 194.768 98.2383 190.618C103.42 186.467 110.871 182.749 120.163 179.723C138.73 173.677 164.123 170.56 191.907 171.913C219.691 173.265 244.379 178.818 261.819 186.617C270.547 190.52 277.336 194.93 281.803 199.551C286.27 204.171 288.235 208.796 287.873 213.239Z" fill="white" stroke="#212121" stroke-width="5"/>
<path d="M150.909 106.248L244.072 113.404L242.358 192.603L242.028 207.803C203.747 226.633 180.894 227.066 137.04 205.214L139.379 188.525L150.909 106.248Z" fill="white"/>
<path d="M139.379 188.525L137.04 205.214C180.894 227.066 203.747 226.633 242.028 207.803L242.358 192.603M139.379 188.525L150.909 106.248L244.072 113.404L242.358 192.603M139.379 188.525C177.238 212.645 199.957 211.908 242.358 192.603" stroke="#212121" stroke-width="5"/>
<path d="M243.092 110.527C242.984 111.663 242.16 113.09 239.867 114.65C237.601 116.192 234.246 117.608 229.934 118.753C221.336 121.034 209.499 122.085 196.496 121.281C183.492 120.477 171.994 117.983 163.93 114.671C159.886 113.011 156.839 111.198 154.893 109.396C152.922 107.573 152.38 106.061 152.488 104.924C152.597 103.788 153.42 102.36 155.713 100.8C157.979 99.2592 161.335 97.8425 165.647 96.6983C174.244 94.417 186.082 93.3655 199.085 94.1695C212.088 94.9736 223.587 97.468 231.65 100.779C235.694 102.44 238.741 104.253 240.688 106.055C242.658 107.878 243.201 109.39 243.092 110.527Z" fill="white" stroke="#212121" stroke-width="5"/>
<path d="M139.704 189.207L137.42 205.4C179.061 227.736 202.097 226.26 242.831 207.843L242.396 192.907C199.61 211.904 176.788 213.661 139.704 189.207Z" fill="#212121" stroke="#212121" stroke-width="3"/>
<path d="M157.986 183.092L167.214 209.768L180.663 210.916L194.526 192.201L188.488 187.91L177.527 201.851L180.873 165.895L175.607 176.996L171.576 165.342L172.105 203.727L165.565 184.82L157.986 183.092Z" fill="#212121"/>
</g>
<defs>
<clipPath id="clip0_922_5">
<rect x="67" y="59" width="250" height="250" rx="120" fill="white"/>
</clipPath>
</defs>
</svg>
