<svg width="297" height="285" viewBox="0 0 297 285" fill="none" xmlns="http://www.w3.org/2000/svg">
<path d="M270.222 193.787C267.507 199.477 261.587 203.774 252.976 206.602C244.364 209.431 233.167 210.749 220.122 210.531C194.038 210.093 160.784 203.512 126.568 190.86C92.3517 178.207 63.7348 161.91 45.1212 145.819C35.812 137.772 29.044 129.81 25.3106 122.417C21.5772 115.025 20.9198 108.294 23.6349 102.605C26.3501 96.9157 32.2705 92.6178 40.8815 89.79C49.4929 86.9619 60.6901 85.6429 73.7354 85.8616C99.8187 86.2993 133.073 92.8802 167.289 105.532C201.505 118.185 230.122 134.483 248.736 150.573C258.045 158.62 264.813 166.582 268.547 173.975C272.28 181.368 272.938 188.098 270.222 193.787Z" fill="white" stroke="#212121" stroke-width="5"/>
<path d="M95.9681 106.903L144.707 18.9934L253.282 62.4363L217.96 150.314L211.558 166.242C184.56 169.24 164.266 168.569 145.327 162.202C126.441 155.852 108.647 143.751 86.8106 123.42L95.9681 106.903Z" fill="white" stroke="black" stroke-width="5"/>
<path d="M93.8928 106.602L84.0714 124.278C126.311 166.438 155.636 173.888 214.304 168.923L220.196 151.611C158.724 156.426 129.544 149.384 93.8928 106.602Z" fill="#212121" stroke="#212121" stroke-width="3"/>
<path d="M258.689 58.1739C257.649 60.2713 255.205 61.8662 251.343 62.8291C247.494 63.789 242.405 64.0733 236.397 63.6651C224.392 62.8487 208.946 59.2819 192.93 53.1332C176.914 46.985 163.436 39.4478 154.588 32.2587C150.16 28.661 146.934 25.1845 145.115 22.0487C143.289 18.9021 142.954 16.24 143.993 14.1425C145.032 12.045 147.477 10.4502 151.338 9.48712C155.187 8.52738 160.276 8.24289 166.284 8.6514C178.29 9.46773 193.735 13.0345 209.751 19.183C225.767 25.3315 239.246 32.8685 248.094 40.0575C252.521 43.6553 255.747 47.1318 257.567 50.2676C259.393 53.4142 259.728 56.0762 258.689 58.1739Z" fill="white" stroke="#212121" stroke-width="5"/>
<path d="M119.298 106.841V141.116L135.553 147.771L160.881 131.799L155.211 124.478L135.553 136.125L155.211 96.1933L143.87 106.841V91.8673L127.992 136.125V111.833L119.298 106.841Z" fill="#212121"/>
<path d="M23.0608 235.93H28.5669C28.4564 237.604 27.9592 239.091 27.0753 240.389C26.2036 241.687 24.9821 242.701 23.4107 243.43C21.8515 244.159 19.9732 244.523 17.7756 244.523C16.0569 244.523 14.5161 244.25 13.1534 243.703C11.7907 243.145 10.6244 242.348 9.65453 241.311C8.69694 240.275 7.96646 239.022 7.46313 237.553C6.95976 236.084 6.7081 234.438 6.7081 232.616V230.89C6.7081 229.068 6.96589 227.423 7.48152 225.953C8.00944 224.473 8.7583 223.214 9.72819 222.178C10.7103 221.141 11.8828 220.344 13.2455 219.786C14.6082 219.228 16.1305 218.949 17.8124 218.949C20.0468 218.949 21.9313 219.325 23.4659 220.076C25.0128 220.828 26.2098 221.865 27.0569 223.186C27.9163 224.507 28.4319 226.01 28.6038 227.696H23.0792C23.0178 226.694 22.8029 225.845 22.4346 225.15C22.0663 224.444 21.5078 223.915 20.7589 223.562C20.0223 223.197 19.0401 223.015 17.8124 223.015C16.8917 223.015 16.0876 223.174 15.4001 223.493C14.7126 223.812 14.1355 224.296 13.669 224.946C13.2025 225.595 12.8526 226.415 12.6194 227.406C12.3984 228.385 12.2879 229.535 12.2879 230.857V232.616C12.2879 233.903 12.3922 235.036 12.601 236.016C12.8096 236.984 13.1288 237.804 13.5585 238.476C14.0005 239.136 14.5652 239.637 15.2527 239.979C15.9525 240.309 16.7935 240.474 17.7756 240.474C18.9296 240.474 19.8811 240.303 20.63 239.962C21.3788 239.62 21.9497 239.114 22.3426 238.441C22.7477 237.769 22.9871 236.932 23.0608 235.93ZM57.2365 231.164V232.343C57.2365 234.233 56.9603 235.93 56.4076 237.433C55.8552 238.937 55.0758 240.218 54.0689 241.277C53.0624 242.325 51.8591 243.128 50.4597 243.686C49.0722 244.244 47.5318 244.523 45.8374 244.523C44.1556 244.523 42.6148 244.244 41.215 243.686C39.8278 243.128 38.6248 242.325 37.6058 241.277C36.5868 240.218 35.795 238.937 35.2303 237.433C34.6778 235.93 34.4016 234.233 34.4016 232.343V231.164C34.4016 229.262 34.6778 227.565 35.2303 226.073C35.7827 224.57 36.5623 223.288 37.569 222.229C38.5879 221.17 39.7909 220.361 41.1785 219.803C42.5778 219.245 44.1186 218.966 45.8004 218.966C47.4948 218.966 49.0356 219.245 50.4228 219.803C51.8222 220.361 53.0255 221.17 54.032 222.229C55.0511 223.288 55.8368 224.57 56.3891 226.073C56.9541 227.565 57.2365 229.262 57.2365 231.164ZM51.6568 232.343V231.13C51.6568 229.808 51.5275 228.647 51.2698 227.645C51.0121 226.642 50.6314 225.799 50.1282 225.116C49.6249 224.433 49.0109 223.92 48.2864 223.579C47.5624 223.226 46.7335 223.049 45.8004 223.049C44.8674 223.049 44.0389 223.226 43.3144 223.579C42.6026 223.92 41.9948 224.433 41.4916 225.116C41.0005 225.799 40.6257 226.642 40.368 227.645C40.1103 228.647 39.9814 229.808 39.9814 231.13V232.343C39.9814 233.652 40.1103 234.814 40.368 235.828C40.6257 236.83 41.0064 237.678 41.5097 238.373C42.0133 239.057 42.627 239.575 43.3514 239.928C44.0758 240.281 44.9043 240.457 45.8374 240.457C46.7704 240.457 47.5989 240.281 48.3234 239.928C49.0478 239.575 49.6556 239.057 50.1466 238.373C50.6377 237.678 51.0121 236.83 51.2698 235.828C51.5275 234.814 51.6568 233.652 51.6568 232.343ZM79.7736 235.93H85.2798C85.1695 237.604 84.6721 239.091 83.7882 240.389C82.9164 241.687 81.695 242.701 80.1236 243.43C78.5643 244.159 76.6861 244.523 74.4884 244.523C72.7697 244.523 71.2289 244.25 69.8661 243.703C68.5037 243.145 67.3373 242.348 66.3673 241.311C65.4099 240.275 64.6792 239.022 64.1759 237.553C63.6727 236.084 63.4209 234.438 63.4209 232.616V230.89C63.4209 229.068 63.6786 227.423 64.1944 225.953C64.7224 224.473 65.4712 223.214 66.4412 222.178C67.4233 221.141 68.5956 220.344 69.9584 219.786C71.3212 219.228 72.8436 218.949 74.5254 218.949C76.7596 218.949 78.6441 219.325 80.1786 220.076C81.7257 220.828 82.9227 221.865 83.7697 223.186C84.6293 224.507 85.1447 226.01 85.3168 227.696H79.792C79.7307 226.694 79.5158 225.845 79.1473 225.15C78.7792 224.444 78.2206 223.915 77.4718 223.562C76.7352 223.197 75.7531 223.015 74.5254 223.015C73.6045 223.015 72.8003 223.174 72.1128 223.493C71.4253 223.812 70.8482 224.296 70.3819 224.946C69.9152 225.595 69.5656 226.415 69.3322 227.406C69.1114 228.385 69.0006 229.535 69.0006 230.857V232.616C69.0006 233.903 69.1051 235.036 69.3137 236.016C69.5223 236.984 69.8417 237.804 70.2715 238.476C70.7135 239.136 71.278 239.637 71.9655 239.979C72.6652 240.309 73.5063 240.474 74.4884 240.474C75.6427 240.474 76.5938 240.303 77.343 239.962C78.0917 239.62 78.6626 239.114 79.0554 238.441C79.4604 237.769 79.7001 236.932 79.7736 235.93ZM109.806 229.438V233.436H95.8104V229.438H109.806ZM97.4494 219.308V244.182H91.9246V219.308H97.4494ZM113.747 219.308V244.182H108.24V219.308H113.747ZM132.803 223.562L125.511 244.182H119.637L129.599 219.308H133.338L132.803 223.562ZM138.862 244.182L131.551 223.562L130.962 219.308H134.737L144.755 244.182H138.862ZM138.53 234.922V238.937H124.369V234.922H138.53ZM160.755 233.265H153.868L153.831 229.746H159.613C160.632 229.746 161.467 229.626 162.118 229.387C162.768 229.137 163.253 228.778 163.572 228.311C163.904 227.833 164.069 227.252 164.069 226.568C164.069 225.794 163.91 225.167 163.591 224.689C163.284 224.211 162.799 223.863 162.136 223.647C161.485 223.43 160.644 223.323 159.613 223.323H155.783V244.182H150.258V219.308H159.613C161.172 219.308 162.565 219.445 163.793 219.718C165.033 219.991 166.083 220.407 166.942 220.965C167.801 221.523 168.458 222.229 168.913 223.083C169.367 223.926 169.594 224.928 169.594 226.09C169.594 227.115 169.342 228.06 168.839 228.926C168.348 229.792 167.568 230.498 166.5 231.044C165.444 231.591 164.063 231.893 162.357 231.95L160.755 233.265ZM160.516 244.182H152.357L154.512 240.184H160.516C161.485 240.184 162.277 240.042 162.891 239.757C163.505 239.461 163.959 239.062 164.254 238.561C164.548 238.06 164.696 237.485 164.696 236.836C164.696 236.107 164.56 235.474 164.29 234.939C164.033 234.404 163.615 233.994 163.038 233.709C162.461 233.413 161.7 233.265 160.755 233.265H155.433L155.47 229.746H162.099L163.37 231.13C165.002 231.107 166.316 231.374 167.31 231.933C168.317 232.479 169.048 233.191 169.502 234.068C169.968 234.945 170.202 235.884 170.202 236.887C170.202 238.481 169.827 239.825 169.078 240.919C168.329 242.001 167.231 242.815 165.782 243.362C164.346 243.908 162.59 244.182 160.516 244.182ZM188.264 223.562L180.972 244.182H175.097L185.06 219.308H188.798L188.264 223.562ZM194.323 244.182L187.012 223.562L186.422 219.308H190.198L200.216 244.182H194.323ZM193.991 234.922V238.937H179.83V234.922H193.991ZM208.242 219.308H212.919L219.806 237.57L226.693 219.308H231.371L221.685 244.182H217.928L208.242 219.308ZM205.719 219.308H210.378L211.225 237.109V244.182H205.719V219.308ZM229.235 219.308H233.912V244.182H228.388V237.109L229.235 219.308ZM252.269 233.265H245.382L245.345 229.746H251.128C252.147 229.746 252.982 229.626 253.632 229.387C254.283 229.137 254.768 228.778 255.087 228.311C255.418 227.833 255.584 227.252 255.584 226.568C255.584 225.794 255.424 225.167 255.105 224.689C254.798 224.211 254.313 223.863 253.651 223.647C253 223.43 252.159 223.323 251.128 223.323H247.297V244.182H241.773V219.308H251.128C252.687 219.308 254.08 219.445 255.308 219.718C256.548 219.991 257.598 220.407 258.457 220.965C259.316 221.523 259.973 222.229 260.427 223.083C260.881 223.926 261.109 224.928 261.109 226.09C261.109 227.115 260.857 228.06 260.353 228.926C259.862 229.792 259.083 230.498 258.015 231.044C256.959 231.591 255.578 231.893 253.871 231.95L252.269 233.265ZM252.03 244.182H243.872L246.027 240.184H252.03C253 240.184 253.792 240.042 254.406 239.757C255.019 239.461 255.473 239.062 255.768 238.561C256.063 238.06 256.21 237.485 256.21 236.836C256.21 236.107 256.075 235.474 255.805 234.939C255.547 234.404 255.13 233.994 254.553 233.709C253.976 233.413 253.214 233.265 252.269 233.265H246.947L246.984 229.746H253.614L254.884 231.13C256.517 231.107 257.831 231.374 258.825 231.933C259.832 232.479 260.562 233.191 261.017 234.068C261.483 234.945 261.716 235.884 261.716 236.887C261.716 238.481 261.342 239.825 260.593 240.919C259.844 242.001 258.746 242.815 257.297 243.362C255.86 243.908 254.105 244.182 252.03 244.182ZM279.779 223.562L272.486 244.182H266.612L276.575 219.308H280.313L279.779 223.562ZM285.837 244.182L278.526 223.562L277.937 219.308H281.712L291.73 244.182H285.837ZM285.506 234.922V238.937H271.344V234.922H285.506Z" fill="#212121"/>
<path d="M63.9179 271.646H69.4241C69.3134 273.321 68.8164 274.807 67.9325 276.105C67.0607 277.403 65.8393 278.417 64.2679 279.146C62.7086 279.875 60.8304 280.24 58.6328 280.24C56.914 280.24 55.3732 279.966 54.0104 279.42C52.6476 278.861 51.4816 278.064 50.5116 277.028C49.5538 275.991 48.8235 274.739 48.3203 273.269C47.817 271.8 47.5652 270.155 47.5652 268.332V266.607C47.5652 264.784 47.8229 263.139 48.3387 261.669C48.8663 260.189 49.6155 258.931 50.5851 257.894C51.5672 256.858 52.7399 256.061 54.1027 255.502C55.4652 254.944 56.9875 254.665 58.6697 254.665C60.9039 254.665 62.7884 255.041 64.3229 255.793C65.87 256.545 67.067 257.581 67.914 258.902C68.7732 260.223 69.289 261.727 69.4607 263.412H63.9363C63.875 262.41 63.6601 261.562 63.2916 260.867C62.9235 260.161 62.3649 259.631 61.6161 259.278C60.8795 258.913 59.8974 258.731 58.6697 258.731C57.7488 258.731 56.9446 258.89 56.2571 259.209C55.5696 259.528 54.9925 260.013 54.5262 260.662C54.0595 261.311 53.7099 262.131 53.4765 263.122C53.2553 264.101 53.1449 265.251 53.1449 266.573V268.332C53.1449 269.619 53.2494 270.752 53.458 271.732C53.6666 272.7 53.986 273.52 54.4154 274.192C54.8574 274.852 55.4223 275.353 56.1098 275.695C56.8095 276.025 57.6506 276.191 58.6328 276.191C59.7866 276.191 60.7381 276.02 61.4869 275.678C62.236 275.336 62.8069 274.83 63.1997 274.158C63.6048 273.486 63.844 272.648 63.9179 271.646ZM90.8745 255.024H96.3808V271.459C96.3808 273.372 95.9389 274.984 95.0549 276.293C94.1832 277.603 92.974 278.588 91.4273 279.249C89.8924 279.909 88.1245 280.24 86.1237 280.24C84.1225 280.24 82.3425 279.909 80.7832 279.249C79.2361 278.588 78.021 277.603 77.1371 276.293C76.2654 274.984 75.8297 273.372 75.8297 271.459V255.024H81.354V271.459C81.354 272.574 81.5442 273.486 81.9249 274.192C82.3055 274.898 82.852 275.416 83.5639 275.746C84.2883 276.077 85.1416 276.242 86.1237 276.242C87.1302 276.242 87.9835 276.077 88.6832 275.746C89.3954 275.416 89.9356 274.898 90.3037 274.192C90.6844 273.486 90.8745 272.574 90.8745 271.459V255.024ZM121.183 275.9V279.898H107.685V275.9H121.183ZM109.471 255.024V279.898H103.946V255.024H109.471ZM135.157 255.024V279.898H129.651V255.024H135.157ZM143.407 255.024V259.039H121.53V255.024H143.407ZM164.379 255.024H169.886V271.459C169.886 273.372 169.444 274.984 168.56 276.293C167.688 277.603 166.479 278.588 164.932 279.249C163.397 279.909 161.629 280.24 159.628 280.24C157.627 280.24 155.847 279.909 154.288 279.249C152.741 278.588 151.525 277.603 150.641 276.293C149.77 274.984 149.334 273.372 149.334 271.459V255.024H154.859V271.459C154.859 272.574 155.049 273.486 155.43 274.192C155.81 274.898 156.356 275.416 157.069 275.746C157.793 276.077 158.646 276.242 159.628 276.242C160.635 276.242 161.488 276.077 162.188 275.746C162.9 275.416 163.44 274.898 163.808 274.192C164.189 273.486 164.379 272.574 164.379 271.459V255.024ZM177.451 255.024H187.451C189.501 255.024 191.262 255.309 192.736 255.878C194.221 256.448 195.363 257.291 196.161 258.406C196.959 259.523 197.358 260.895 197.358 262.524C197.358 263.856 197.113 265.001 196.621 265.958C196.143 266.903 195.461 267.695 194.577 268.332C193.706 268.958 192.68 269.46 191.502 269.836L189.752 270.69H181.06L181.023 266.692H187.488C188.457 266.692 189.261 266.533 189.9 266.214C190.538 265.895 191.017 265.451 191.336 264.881C191.668 264.312 191.833 263.651 191.833 262.899C191.833 262.102 191.674 261.413 191.354 260.833C191.035 260.252 190.55 259.807 189.9 259.5C189.249 259.193 188.433 259.039 187.451 259.039H182.976V279.898H177.451V255.024ZM192.441 279.898L186.327 268.81L192.165 268.776L198.352 279.659V279.898H192.441ZM215.531 259.278L208.238 279.898H202.364L212.326 255.024H216.065L215.531 259.278ZM221.589 279.898L214.278 259.278L213.689 255.024H217.464L227.482 279.898H221.589ZM221.258 270.639V274.653H207.097V270.639H221.258ZM250.222 275.9V279.898H236.723V275.9H250.222ZM238.51 255.024V279.898H232.985V255.024H238.51Z" fill="white"/>
</svg>
