<svg width="756" height="820" viewBox="0 0 756 820" fill="none" xmlns="http://www.w3.org/2000/svg">
<g clip-path="url(#clip0_342_2)">
<path d="M687.838 531.725C680.927 547.336 665.857 559.128 643.938 566.888C622.018 574.648 593.516 578.267 560.31 577.667C493.915 576.466 409.268 558.409 322.173 523.693C235.077 488.976 162.234 444.258 114.854 400.108C91.1579 378.028 73.9303 356.181 64.427 335.896C54.9239 315.611 53.2505 297.144 60.1617 281.534C67.0729 265.923 82.1432 254.13 104.062 246.371C125.982 238.611 154.484 234.992 187.69 235.592C254.084 236.793 338.732 254.85 425.827 289.566C512.923 324.282 585.766 369.001 633.146 413.15C656.842 435.231 674.07 457.078 683.573 477.363C693.076 497.648 694.75 516.115 687.838 531.725Z" fill="white" stroke="#212121" stroke-width="5"/>
<path d="M365.5 43.5L653 167.5L560.712 415L543 462.5C400.988 480.094 328.065 456.567 213 340L238.717 290L365.5 43.5Z" fill="white"/>
<path d="M238.717 290L213 340C328.065 456.567 400.988 480.094 543 462.5L560.712 415M238.717 290L365.5 43.5L653 167.5L560.712 415M238.717 290C332.29 407.179 405.123 429.603 560.712 415" stroke="#212121" stroke-width="5"/>
<path d="M658.481 159.621C655.835 165.376 649.613 169.752 639.782 172.394C629.985 175.028 617.031 175.808 601.738 174.688C571.179 172.448 531.863 162.661 491.095 145.79C450.327 128.92 416.018 108.239 393.496 88.5133C382.225 78.6415 374.015 69.1027 369.383 60.4984C364.735 51.8645 363.882 44.5602 366.527 38.8049C369.172 33.0497 375.395 28.6737 385.225 26.0312C395.022 23.3978 407.976 22.6172 423.269 23.7381C453.828 25.978 493.144 35.7648 533.912 52.6354C574.68 69.5059 608.989 90.1865 631.511 109.912C642.782 119.784 650.993 129.323 655.624 137.927C660.272 146.561 661.126 153.865 658.481 159.621Z" fill="white" stroke="#212121" stroke-width="5"/>
<path d="M239 292.5L214 341C321.52 456.682 396.165 477.123 545.5 463.5L560.5 416C404.025 429.211 329.749 409.89 239 292.5Z" fill="#212121" stroke="#212121" stroke-width="3"/>
<path d="M303.667 293.158V387.202L345.044 405.463L409.516 361.637L395.082 341.55L345.044 373.507L395.082 263.941L366.214 293.158V252.071L325.799 373.507V306.854L303.667 293.158Z" fill="#212121"/>
<path d="M58.7002 647.359H72.7158C72.4346 651.953 71.1689 656.031 68.9189 659.594C66.7002 663.156 63.5908 665.938 59.5908 667.938C55.6221 669.938 50.8408 670.938 45.2471 670.938C40.8721 670.938 36.9502 670.188 33.4814 668.688C30.0127 667.156 27.0439 664.969 24.5752 662.125C22.1377 659.281 20.2783 655.844 18.9971 651.812C17.7158 647.781 17.0752 643.266 17.0752 638.266V633.531C17.0752 628.531 17.7314 624.016 19.0439 619.984C20.3877 615.922 22.2939 612.469 24.7627 609.625C27.2627 606.781 30.2471 604.594 33.7158 603.062C37.1846 601.531 41.0596 600.766 45.3408 600.766C51.0283 600.766 55.8252 601.797 59.7314 603.859C63.6689 605.922 66.7158 608.766 68.8721 612.391C71.0596 616.016 72.3721 620.141 72.8096 624.766H58.7471C58.5908 622.016 58.0439 619.688 57.1064 617.781C56.1689 615.844 54.7471 614.391 52.8408 613.422C50.9658 612.422 48.4658 611.922 45.3408 611.922C42.9971 611.922 40.9502 612.359 39.2002 613.234C37.4502 614.109 35.9814 615.438 34.7939 617.219C33.6064 619 32.7158 621.25 32.1221 623.969C31.5596 626.656 31.2783 629.812 31.2783 633.438V638.266C31.2783 641.797 31.5439 644.906 32.0752 647.594C32.6064 650.25 33.4189 652.5 34.5127 654.344C35.6377 656.156 37.0752 657.531 38.8252 658.469C40.6064 659.375 42.7471 659.828 45.2471 659.828C48.1846 659.828 50.6064 659.359 52.5127 658.422C54.4189 657.484 55.8721 656.094 56.8721 654.25C57.9033 652.406 58.5127 650.109 58.7002 647.359ZM145.693 634.281V637.516C145.693 642.703 144.99 647.359 143.583 651.484C142.177 655.609 140.193 659.125 137.63 662.031C135.068 664.906 132.005 667.109 128.443 668.641C124.911 670.172 120.99 670.938 116.677 670.938C112.396 670.938 108.474 670.172 104.911 668.641C101.38 667.109 98.3177 664.906 95.7239 662.031C93.1302 659.125 91.1146 655.609 89.6771 651.484C88.2708 647.359 87.5677 642.703 87.5677 637.516V634.281C87.5677 629.062 88.2708 624.406 89.6771 620.312C91.0833 616.188 93.0677 612.672 95.6302 609.766C98.2239 606.859 101.286 604.641 104.818 603.109C108.38 601.578 112.302 600.812 116.583 600.812C120.896 600.812 124.818 601.578 128.349 603.109C131.911 604.641 134.974 606.859 137.536 609.766C140.13 612.672 142.13 616.188 143.536 620.312C144.974 624.406 145.693 629.062 145.693 634.281ZM131.49 637.516V634.188C131.49 630.562 131.161 627.375 130.505 624.625C129.849 621.875 128.88 619.562 127.599 617.688C126.318 615.812 124.755 614.406 122.911 613.469C121.068 612.5 118.958 612.016 116.583 612.016C114.208 612.016 112.099 612.5 110.255 613.469C108.443 614.406 106.896 615.812 105.615 617.688C104.365 619.562 103.411 621.875 102.755 624.625C102.099 627.375 101.771 630.562 101.771 634.188V637.516C101.771 641.109 102.099 644.297 102.755 647.078C103.411 649.828 104.38 652.156 105.661 654.062C106.943 655.938 108.505 657.359 110.349 658.328C112.193 659.297 114.302 659.781 116.677 659.781C119.052 659.781 121.161 659.297 123.005 658.328C124.849 657.359 126.396 655.938 127.646 654.062C128.896 652.156 129.849 649.828 130.505 647.078C131.161 644.297 131.49 641.109 131.49 637.516ZM203.06 647.359H217.076C216.795 651.953 215.529 656.031 213.279 659.594C211.06 663.156 207.951 665.938 203.951 667.938C199.982 669.938 195.201 670.938 189.607 670.938C185.232 670.938 181.31 670.188 177.841 668.688C174.373 667.156 171.404 664.969 168.935 662.125C166.498 659.281 164.638 655.844 163.357 651.812C162.076 647.781 161.435 643.266 161.435 638.266V633.531C161.435 628.531 162.091 624.016 163.404 619.984C164.748 615.922 166.654 612.469 169.123 609.625C171.623 606.781 174.607 604.594 178.076 603.062C181.545 601.531 185.42 600.766 189.701 600.766C195.388 600.766 200.185 601.797 204.091 603.859C208.029 605.922 211.076 608.766 213.232 612.391C215.42 616.016 216.732 620.141 217.17 624.766H203.107C202.951 622.016 202.404 619.688 201.466 617.781C200.529 615.844 199.107 614.391 197.201 613.422C195.326 612.422 192.826 611.922 189.701 611.922C187.357 611.922 185.31 612.359 183.56 613.234C181.81 614.109 180.341 615.438 179.154 617.219C177.966 619 177.076 621.25 176.482 623.969C175.92 626.656 175.638 629.812 175.638 633.438V638.266C175.638 641.797 175.904 644.906 176.435 647.594C176.966 650.25 177.779 652.5 178.873 654.344C179.998 656.156 181.435 657.531 183.185 658.469C184.966 659.375 187.107 659.828 189.607 659.828C192.545 659.828 194.966 659.359 196.873 658.422C198.779 657.484 200.232 656.094 201.232 654.25C202.263 652.406 202.873 650.109 203.06 647.359ZM279.506 629.547V640.516H243.881V629.547H279.506ZM248.053 601.75V670H233.99V601.75H248.053ZM289.537 601.75V670H275.521V601.75H289.537ZM338.045 613.422L319.483 670H304.53L329.889 601.75H339.405L338.045 613.422ZM353.467 670L334.858 613.422L333.358 601.75H342.967L368.467 670H353.467ZM352.623 644.594V655.609H316.576V644.594H352.623ZM409.194 640.047H391.663L391.569 630.391H406.288C408.881 630.391 411.006 630.062 412.663 629.406C414.319 628.719 415.553 627.734 416.366 626.453C417.21 625.141 417.631 623.547 417.631 621.672C417.631 619.547 417.225 617.828 416.413 616.516C415.631 615.203 414.397 614.25 412.71 613.656C411.053 613.062 408.913 612.766 406.288 612.766H396.538V670H382.475V601.75H406.288C410.256 601.75 413.803 602.125 416.928 602.875C420.085 603.625 422.756 604.766 424.944 606.297C427.131 607.828 428.803 609.766 429.96 612.109C431.116 614.422 431.694 617.172 431.694 620.359C431.694 623.172 431.053 625.766 429.772 628.141C428.522 630.516 426.538 632.453 423.819 633.953C421.131 635.453 417.616 636.281 413.272 636.438L409.194 640.047ZM408.585 670H387.819L393.303 659.031H408.585C411.053 659.031 413.069 658.641 414.631 657.859C416.194 657.047 417.35 655.953 418.1 654.578C418.85 653.203 419.225 651.625 419.225 649.844C419.225 647.844 418.881 646.109 418.194 644.641C417.538 643.172 416.475 642.047 415.006 641.266C413.538 640.453 411.6 640.047 409.194 640.047H395.647L395.741 630.391H412.616L415.85 634.188C420.006 634.125 423.35 634.859 425.881 636.391C428.444 637.891 430.303 639.844 431.46 642.25C432.647 644.656 433.241 647.234 433.241 649.984C433.241 654.359 432.288 658.047 430.381 661.047C428.475 664.016 425.678 666.25 421.991 667.75C418.335 669.25 413.866 670 408.585 670ZM479.218 613.422L460.655 670H445.702L471.061 601.75H480.577L479.218 613.422ZM494.64 670L476.03 613.422L474.53 601.75H484.14L509.64 670H494.64ZM493.796 644.594V655.609H457.749V644.594H493.796ZM530.07 601.75H541.976L559.507 651.859L577.038 601.75H588.945L564.288 670H554.726L530.07 601.75ZM523.648 601.75H535.507L537.663 650.594V670H523.648V601.75ZM583.507 601.75H595.413V670H581.351V650.594L583.507 601.75ZM642.14 640.047H624.609L624.515 630.391H639.234C641.828 630.391 643.953 630.062 645.609 629.406C647.265 628.719 648.5 627.734 649.312 626.453C650.156 625.141 650.578 623.547 650.578 621.672C650.578 619.547 650.171 617.828 649.359 616.516C648.578 615.203 647.343 614.25 645.656 613.656C644 613.062 641.859 612.766 639.234 612.766H629.484V670H615.421V601.75H639.234C643.203 601.75 646.75 602.125 649.875 602.875C653.031 603.625 655.703 604.766 657.89 606.297C660.078 607.828 661.75 609.766 662.906 612.109C664.062 614.422 664.64 617.172 664.64 620.359C664.64 623.172 664 625.766 662.718 628.141C661.468 630.516 659.484 632.453 656.765 633.953C654.078 635.453 650.562 636.281 646.218 636.438L642.14 640.047ZM641.531 670H620.765L626.25 659.031H641.531C644 659.031 646.015 658.641 647.578 657.859C649.14 657.047 650.296 655.953 651.046 654.578C651.796 653.203 652.171 651.625 652.171 649.844C652.171 647.844 651.828 646.109 651.14 644.641C650.484 643.172 649.421 642.047 647.953 641.266C646.484 640.453 644.546 640.047 642.14 640.047H628.593L628.687 630.391H645.562L648.796 634.188C652.953 634.125 656.296 634.859 658.828 636.391C661.39 637.891 663.25 639.844 664.406 642.25C665.593 644.656 666.187 647.234 666.187 649.984C666.187 654.359 665.234 658.047 663.328 661.047C661.421 664.016 658.625 666.25 654.937 667.75C651.281 669.25 646.812 670 641.531 670ZM712.164 613.422L693.601 670H678.648L704.008 601.75H713.523L712.164 613.422ZM727.586 670L708.976 613.422L707.476 601.75H717.086L742.586 670H727.586ZM726.742 644.594V655.609H690.695V644.594H726.742Z" fill="#212121"/>
<path d="M162.7 745.359H176.716C176.434 749.953 175.169 754.031 172.919 757.594C170.7 761.156 167.591 763.938 163.591 765.938C159.622 767.938 154.841 768.938 149.247 768.938C144.872 768.938 140.95 768.188 137.481 766.688C134.012 765.156 131.044 762.969 128.575 760.125C126.137 757.281 124.278 753.844 122.997 749.812C121.716 745.781 121.075 741.266 121.075 736.266V731.531C121.075 726.531 121.731 722.016 123.044 717.984C124.387 713.922 126.294 710.469 128.762 707.625C131.262 704.781 134.247 702.594 137.716 701.062C141.184 699.531 145.059 698.766 149.341 698.766C155.028 698.766 159.825 699.797 163.731 701.859C167.669 703.922 170.716 706.766 172.872 710.391C175.059 714.016 176.372 718.141 176.809 722.766H162.747C162.591 720.016 162.044 717.688 161.106 715.781C160.169 713.844 158.747 712.391 156.841 711.422C154.966 710.422 152.466 709.922 149.341 709.922C146.997 709.922 144.95 710.359 143.2 711.234C141.45 712.109 139.981 713.438 138.794 715.219C137.606 717 136.716 719.25 136.122 721.969C135.559 724.656 135.278 727.812 135.278 731.438V736.266C135.278 739.797 135.544 742.906 136.075 745.594C136.606 748.25 137.419 750.5 138.512 752.344C139.637 754.156 141.075 755.531 142.825 756.469C144.606 757.375 146.747 757.828 149.247 757.828C152.184 757.828 154.606 757.359 156.512 756.422C158.419 755.484 159.872 754.094 160.872 752.25C161.903 750.406 162.512 748.109 162.7 745.359ZM231.317 699.75H245.333V744.844C245.333 750.094 244.208 754.516 241.958 758.109C239.739 761.703 236.661 764.406 232.724 766.219C228.817 768.031 224.317 768.938 219.224 768.938C214.13 768.938 209.599 768.031 205.63 766.219C201.692 764.406 198.599 761.703 196.349 758.109C194.13 754.516 193.021 750.094 193.021 744.844V699.75H207.083V744.844C207.083 747.906 207.567 750.406 208.536 752.344C209.505 754.281 210.896 755.703 212.708 756.609C214.552 757.516 216.724 757.969 219.224 757.969C221.786 757.969 223.958 757.516 225.739 756.609C227.552 755.703 228.927 754.281 229.864 752.344C230.833 750.406 231.317 747.906 231.317 744.844V699.75ZM308.466 757.031V768H274.107V757.031H308.466ZM278.654 699.75V768H264.591V699.75H278.654ZM344.037 699.75V768H330.021V699.75H344.037ZM365.037 699.75V710.766H309.349V699.75H365.037ZM418.42 699.75H432.436V744.844C432.436 750.094 431.311 754.516 429.061 758.109C426.842 761.703 423.764 764.406 419.826 766.219C415.92 768.031 411.42 768.938 406.326 768.938C401.232 768.938 396.701 768.031 392.732 766.219C388.795 764.406 385.701 761.703 383.451 758.109C381.232 754.516 380.123 750.094 380.123 744.844V699.75H394.186V744.844C394.186 747.906 394.67 750.406 395.639 752.344C396.607 754.281 397.998 755.703 399.811 756.609C401.654 757.516 403.826 757.969 406.326 757.969C408.889 757.969 411.061 757.516 412.842 756.609C414.654 755.703 416.029 754.281 416.967 752.344C417.936 750.406 418.42 747.906 418.42 744.844V699.75ZM451.694 699.75H477.147C482.366 699.75 486.85 700.531 490.6 702.094C494.381 703.656 497.287 705.969 499.319 709.031C501.35 712.094 502.366 715.859 502.366 720.328C502.366 723.984 501.741 727.125 500.491 729.75C499.272 732.344 497.537 734.516 495.287 736.266C493.069 737.984 490.459 739.359 487.459 740.391L483.006 742.734H460.881L460.787 731.766H477.241C479.709 731.766 481.756 731.328 483.381 730.453C485.006 729.578 486.225 728.359 487.037 726.797C487.881 725.234 488.303 723.422 488.303 721.359C488.303 719.172 487.897 717.281 487.084 715.688C486.272 714.094 485.037 712.875 483.381 712.031C481.725 711.188 479.647 710.766 477.147 710.766H465.756V768H451.694V699.75ZM489.85 768L474.287 737.578L489.147 737.484L504.897 767.344V768H489.85ZM548.624 711.422L530.061 768H515.108L540.467 699.75H549.983L548.624 711.422ZM564.046 768L545.436 711.422L543.936 699.75H553.546L579.046 768H564.046ZM563.202 742.594V753.609H527.155V742.594H563.202ZM636.929 757.031V768H602.569V757.031H636.929ZM607.116 699.75V768H593.054V699.75H607.116Z" fill="#1BBA6E"/>
</g>
<defs>
<clipPath id="clip0_342_2">
<rect width="756" height="820" fill="white"/>
</clipPath>
</defs>
</svg>
